<svg id="SvgjsSvg1001" width="288" height="288" xmlns="http://www.w3.org/2000/svg" version="1.1" xmlns:xlink="http://www.w3.org/1999/xlink" xmlns:svgjs="http://svgjs.com/svgjs"><defs id="SvgjsDefs1002"></defs><g id="SvgjsG1008" transform="matrix(1,0,0,1,0,0)"><svg xmlns="http://www.w3.org/2000/svg" enable-background="new 0 0 365.436 365.436" viewBox="0 0 365.436 365.436" width="288" height="288"><path d="M115.725 172.928c38.914 0 70.573-31.659 70.573-70.573 0-38.914-31.659-70.572-70.573-70.572-38.914 0-70.572 31.659-70.572 70.572C45.153 141.269 76.812 172.928 115.725 172.928zM115.725 61.783c22.372 0 40.573 18.201 40.573 40.572 0 22.372-18.201 40.573-40.573 40.573-22.372 0-40.572-18.201-40.572-40.573C75.153 79.983 93.354 61.783 115.725 61.783zM270.436 174.442c32.609 0 59.138-26.529 59.138-59.138s-26.529-59.138-59.138-59.138-59.138 26.529-59.138 59.138S237.827 174.442 270.436 174.442zM270.436 86.166c16.067 0 29.138 13.071 29.138 29.138 0 16.066-13.071 29.138-29.138 29.138-16.066 0-29.138-13.071-29.138-29.138C241.298 99.237 254.369 86.166 270.436 86.166zM365.436 294.442c0-52.383-42.617-95-95-95-29.218 0-56.582 13.639-74.388 35.984-20.828-20.108-49.154-32.498-80.322-32.498C51.914 202.928 0 254.842 0 318.653v15h231.45v-15c0-3.1-.126-6.171-.367-9.211h134.352V294.442zM31.313 303.653c7.113-40.143 42.258-70.725 84.412-70.725s77.298 30.582 84.412 70.725H31.313zM224.607 279.442c-2.468-6.833-5.565-13.367-9.215-19.537 11.795-18.724 32.623-30.463 55.044-30.463 30.681 0 56.464 21.365 63.253 50H224.607z" fill="#ffffff" class="color000 svgShape"></path></svg></g></svg>