<svg width="840.632421875px" height="336.8375px" xmlns="http://www.w3.org/2000/svg" viewBox="-170.3162109375 -93.41874999999999 840.632421875 336.8375" style="background: rgba(0, 0, 0, 0);" preserveAspectRatio="xMidYMid"><defs><filter id="editing-vr"><feFlood flood-color="#f00" flood-opacity="0.7" result="c1"></feFlood><feFlood flood-color="#00f" flood-opacity="0.7" result="c3"></feFlood><feComposite operator="in" in="c1" in2="SourceAlpha" result="text-c1"></feComposite><feComposite operator="in" in="c3" in2="SourceAlpha" result="text-c3"></feComposite><feOffset in="text-c1" dx="5" dy="-1" result="text1"></feOffset><feOffset in="text-c3" dx="-5" dy="1" result="text3"></feOffset><feBlend in="SourceGraphic" in2="text1" mode="multiply" result="text4"></feBlend><feBlend in="text4" in2="text3" mode="multiply"></feBlend></filter></defs><g filter="url(#editing-vr)"><g transform="translate(-50.49998760223389, 163)"><path d="M84.40-64.40L124.80-68L124.80-68Q110.40-36.40 110.40 0.20L110.40 0.20L110.40 0.20Q105 4 97.10 4L97.10 4L97.10 4Q89.20 4 84.20 0.30L84.20 0.30L84.20 0.30Q79.20-3.40 78.20-7.20L78.20-7.20L78.20-7.20Q73.20-2 65.10 1L65.10 1L65.10 1Q57 4 48.40 4L48.40 4L48.40 4Q39.80 4 32.30 1.20L32.30 1.20L32.30 1.20Q24.80-1.60 19-7.80L19-7.80L19-7.80Q6.20-21.40 6.20-47.20L6.20-47.20L6.20-47.20Q6.20-87.20 27.60-111.20L27.60-111.20L27.60-111.20Q49.60-136 88.60-136L88.60-136L88.60-136Q115.60-136 125.20-122L125.20-122L125.20-122Q128.20-117.60 128.20-112.30L128.20-112.30L128.20-112.30Q128.20-107 125.90-102.50L125.90-102.50L125.90-102.50Q123.60-98 120-94.40L120-94.40L120-94.40Q111.40-86.40 100.80-86.40L100.80-86.40L100.80-86.40Q96.60-86.40 92.60-87.80L92.60-87.80L92.60-87.80Q93.40-93.80 93.40-100.80L93.40-100.80L93.40-100.80Q93.40-107.80 92.90-111L92.90-111L92.90-111Q92.40-114.20 91.20-116.80L91.20-116.80L91.20-116.80Q88.60-122.20 82.90-122.20L82.90-122.20L82.90-122.20Q77.20-122.20 70.90-116.10L70.90-116.10L70.90-116.10Q64.60-110 59.60-100L59.60-100L59.60-100Q48.60-77.60 48.60-50.60L48.60-50.60L48.60-50.60Q48.60-38.20 53.40-29.40L53.40-29.40L53.40-29.40Q58.60-19.80 67.80-19.80L67.80-19.80L67.80-19.80Q71-19.80 73.90-21.40L73.90-21.40L73.90-21.40Q76.80-23 78-24.20L78-24.20L84.40-64.40ZM197.20-56.20L197.20-56.20L197.20-56.20Q204.40-69 204.40-82L204.40-82L204.40-82Q204.40-90.60 198.20-90.60L198.20-90.60L198.20-90.60Q193.40-90.60 188.40-82.40L188.40-82.40L188.40-82.40Q183.20-74.20 181.60-63.60L181.60-63.60L171.20 0L129.80 4L150.20-102L183.20-106L179.60-85.80L179.60-85.80Q189.40-106 211.40-106L211.40-106L211.40-106Q223.00-106 229.30-100L229.30-100L229.30-100Q235.60-94 235.60-81.70L235.60-81.70L235.60-81.70Q235.60-69.40 227.50-61.60L227.50-61.60L227.50-61.60Q219.40-53.80 205.60-53.80L205.60-53.80L205.60-53.80Q199.60-53.80 197.20-56.20ZM282.40 4L282.40 4L282.40 4Q238.40 4 238.40-37.40L238.40-37.40L238.40-37.40Q238.40-66.80 254.60-85.80L254.60-85.80L254.60-85.80Q271.80-106 301.60-106L301.60-106L301.60-106Q323.20-106 334.20-96L334.20-96L334.20-96Q345.20-86 345.20-65L345.20-65L345.20-65Q345.20-33 328.00-14.40L328.00-14.40L328.00-14.40Q311.20 4 282.40 4ZM287.60-83L287.60-83L287.60-83Q285.20-77.60 283.30-69.50L283.30-69.50L283.30-69.50Q281.40-61.40 279.00-48.60L279.00-48.60L279.00-48.60Q276.60-35.80 276.60-20L276.60-20L276.60-20Q276.60-14.80 278.30-11.40L278.30-11.40L278.30-11.40Q280.00-8 284.60-8L284.60-8L284.60-8Q289.20-8 292.10-10.20L292.10-10.20L292.10-10.20Q295.00-12.40 297.20-17.60L297.20-17.60L297.20-17.60Q301.20-26.80 304.40-43.90L304.40-43.90L304.40-43.90Q307.60-61 307.90-68.40L307.90-68.40L307.90-68.40Q308.20-75.80 308.20-81.30L308.20-81.30L308.20-81.30Q308.20-86.80 306.60-90.40L306.60-90.40L306.60-90.40Q305.00-94 300.50-94L300.50-94L300.50-94Q296.00-94 293.00-91.20L293.00-91.20L293.00-91.20Q290.00-88.40 287.60-83ZM421.20-8.40L421.20-8.40L421.20-8.40Q411.60 4 387.80 4L387.80 4L387.80 4Q375.40 4 366.40-3.50L366.40-3.50L366.40-3.50Q357.40-11 357.40-21.80L357.40-21.80L357.40-21.80Q357.40-27.80 358-30.80L358-30.80L371.40-102L412-106L397.40-28.80L397.40-28.80Q396.60-24.40 396.60-21.80L396.60-21.80L396.60-21.80Q396.60-10.20 403.60-10.20L403.60-10.20L403.60-10.20Q411.40-10.20 417-20.80L417-20.80L417-20.80Q418.80-24.20 419.60-28.60L419.60-28.60L433.80-102L473.20-106L458.40-28L458.40-28Q457.80-25 457.80-21.80L457.80-21.80L457.80-21.80Q457.80-18.60 459.60-15.10L459.60-15.10L459.60-15.10Q461.40-11.60 467.20-10.80L467.20-10.80L467.20-10.80Q466-6 461.80-2.80L461.80-2.80L461.80-2.80Q453 4 443.50 4L443.50 4L443.50 4Q434 4 428.40 0.60L428.40 0.60L428.40 0.60Q422.80-2.80 421.20-8.40ZM577.20-13.70L577.20-13.70L577.20-13.70Q568.80-5.20 557.30-0.60L557.30-0.60L557.30-0.60Q545.80 4 534.40 4L534.40 4L534.40 4Q523 4 519 2L519 2L512.80 36L472.20 40L499.80-102L532.40-105.40L529.80-91.60L529.80-91.60Q538.20-105.80 555.60-105.80L555.60-105.80L555.60-105.80Q575.20-105.80 585.60-93.20L585.60-93.20L585.60-93.20Q594.80-81.80 594.80-64.40L594.80-64.40L594.80-64.40Q594.80-47 590.20-34.60L590.20-34.60L590.20-34.60Q585.60-22.20 577.20-13.70ZM532-69.80L521.40-11.20L521.40-11.20Q525.60-7.60 530.80-7.60L530.80-7.60L530.80-7.60Q536-7.60 539-9.60L539-9.60L539-9.60Q542-11.60 544.20-15.60L544.20-15.60L544.20-15.60Q550.20-26.40 555-59.20L555-59.20L555-59.20Q556.40-68.80 556.40-78.20L556.40-78.20L556.40-78.20Q556.40-87.60 554.30-90.60L554.30-90.60L554.30-90.60Q552.20-93.60 548.20-93.60L548.20-93.60L548.20-93.60Q536-93.60 532-69.80L532-69.80Z" fill="#444"></path></g></g><style>text {
  font-size: 64px;
  font-family: Arial Black;
  dominant-baseline: central;
  text-anchor: middle;
}</style></svg>